<?xml version="1.0" encoding="utf-8"?>
<!-- Generator: Adobe Illustrator 20.1.0, SVG Export Plug-In . SVG Version: 6.00 Build 0)  -->
<!DOCTYPE svg PUBLIC "-//W3C//DTD SVG 1.1//EN" "http://www.w3.org/Graphics/SVG/1.1/DTD/svg11.dtd">
<svg version="1.1" id="Layer_1" xmlns="http://www.w3.org/2000/svg" xmlns:xlink="http://www.w3.org/1999/xlink" x="0px" y="0px"
	 width="255.5px" height="86.2px" viewBox="0 0 255.5 86.2" style="enable-background:new 0 0 255.5 86.2;" xml:space="preserve">
<style type="text/css">
	.st0{clip-path:url(#SVGID_2_);fill:#003976;}
	.st1{clip-path:url(#SVGID_4_);fill:#FFFFFF;}
	.st2{clip-path:url(#SVGID_6_);fill:#003976;}
	.st3{clip-path:url(#SVGID_8_);fill:#FFFFFF;}
	.st4{clip-path:url(#SVGID_10_);fill:#FFFFFF;}
	.st5{clip-path:url(#SVGID_12_);fill:#FFFFFF;}
	.st6{clip-path:url(#SVGID_14_);fill:#FFFFFF;}
	.st7{clip-path:url(#SVGID_16_);fill:#FFFFFF;}
	.st8{clip-path:url(#SVGID_18_);fill:#FFFFFF;}
	.st9{clip-path:url(#SVGID_20_);fill:#FFFFFF;}
	.st10{clip-path:url(#SVGID_22_);fill:#FFFFFF;}
	.st11{clip-path:url(#SVGID_24_);fill:#FFFFFF;}
	.st12{clip-path:url(#SVGID_26_);fill:#FFFFFF;}
	.st13{clip-path:url(#SVGID_28_);fill:#FFFFFF;}
	.st14{clip-path:url(#SVGID_30_);fill:#FFFFFF;}
	.st15{clip-path:url(#SVGID_32_);fill:#FFFFFF;}
	.st16{clip-path:url(#SVGID_34_);fill:#FFFFFF;}
	.st17{clip-path:url(#SVGID_36_);fill:#FFFFFF;}
	.st18{clip-path:url(#SVGID_38_);fill:#FFFFFF;}
	.st19{clip-path:url(#SVGID_40_);fill:#FFFFFF;}
	.st20{clip-path:url(#SVGID_42_);fill:#FFFFFF;}
	.st21{clip-path:url(#SVGID_44_);fill:#003976;}
	.st22{clip-path:url(#SVGID_46_);fill:#003976;}
	.st23{clip-path:url(#SVGID_48_);fill:#003976;}
	.st24{clip-path:url(#SVGID_50_);fill:#003976;}
	.st25{clip-path:url(#SVGID_52_);fill:#003976;}
	.st26{clip-path:url(#SVGID_54_);fill:#003976;}
	.st27{clip-path:url(#SVGID_56_);fill:#003976;}
	.st28{clip-path:url(#SVGID_58_);fill:#003976;}
	.st29{clip-path:url(#SVGID_60_);fill:#003976;}
	.st30{clip-path:url(#SVGID_62_);fill:#003976;}
	.st31{clip-path:url(#SVGID_64_);fill:#003976;}
	.st32{clip-path:url(#SVGID_66_);fill:#003976;}
	.st33{clip-path:url(#SVGID_68_);fill:#003976;}
	.st34{clip-path:url(#SVGID_70_);fill:#003976;}
	.st35{clip-path:url(#SVGID_72_);fill:#003976;}
	.st36{clip-path:url(#SVGID_74_);fill:#003976;}
	.st37{clip-path:url(#SVGID_76_);fill:#003976;}
	.st38{clip-path:url(#SVGID_78_);fill:#003976;}
	.st39{clip-path:url(#SVGID_80_);fill:#003976;}
	.st40{clip-path:url(#SVGID_82_);fill:#003976;}
	.st41{clip-path:url(#SVGID_84_);fill:#003976;}
	.st42{clip-path:url(#SVGID_86_);fill:#003976;}
	.st43{clip-path:url(#SVGID_88_);fill:#003976;}
	.st44{clip-path:url(#SVGID_90_);fill:#003976;}
	.st45{clip-path:url(#SVGID_92_);fill:#003976;}
	.st46{clip-path:url(#SVGID_94_);fill:#FFFFFF;}
	.st47{clip-path:url(#SVGID_96_);fill:#003976;}
	.st48{clip-path:url(#SVGID_98_);fill:#003976;}
	.st49{clip-path:url(#SVGID_100_);fill:#003976;}
	.st50{clip-path:url(#SVGID_102_);fill:#003976;}
	.st51{clip-path:url(#SVGID_104_);fill:#003976;}
	.st52{clip-path:url(#SVGID_106_);fill:#003976;}
	.st53{clip-path:url(#SVGID_108_);fill:#003976;}
	.st54{clip-path:url(#SVGID_110_);fill:#003976;}
</style>
<g>
	<g>
		<defs>
			<rect id="SVGID_1_" width="255.5" height="86.2"/>
		</defs>
		<clipPath id="SVGID_2_">
			<use xlink:href="#SVGID_1_"  style="overflow:visible;"/>
		</clipPath>
		<path class="st0" d="M255.5,86.2V40.1c0-3.9-3.2-7.3-9.2-7.3H41.2c-3.7,0-6.7,2.9-6.6,6.5v39c0,4.8,3.8,7.9,8.1,7.9H255.5z"/>
	</g>
	<g>
		<defs>
			<rect id="SVGID_3_" width="255.5" height="86.2"/>
		</defs>
		<clipPath id="SVGID_4_">
			<use xlink:href="#SVGID_3_"  style="overflow:visible;"/>
		</clipPath>
		<path class="st1" d="M252.6,82.9h-208c-4.6,0-6.8-2.1-6.8-6.6V42.4c0-3.6,3-6.5,6.7-6.5h201.3c4.6,0,6.8,2.1,6.8,6.5V82.9z"/>
	</g>
	<g>
		<defs>
			<rect id="SVGID_5_" width="255.5" height="86.2"/>
		</defs>
		<clipPath id="SVGID_6_">
			<use xlink:href="#SVGID_5_"  style="overflow:visible;"/>
		</clipPath>
		<path class="st2" d="M245.9,37.6H44.5c-2.8,0-5.1,2.2-5.1,4.9v33.9c0,3.6,1.4,4.9,5.1,4.9h206.4V42.5
			C251,39,249.6,37.6,245.9,37.6"/>
	</g>
	<g>
		<defs>
			<rect id="SVGID_7_" width="255.5" height="86.2"/>
		</defs>
		<clipPath id="SVGID_8_">
			<use xlink:href="#SVGID_7_"  style="overflow:visible;"/>
		</clipPath>
		<path class="st3" d="M92.3,63.9c-1-0.9-1-2.2-1-3.5v-4.6c0-1.1,0.1-2.2,1-2.9c0.8-0.6,2.1-1,3.6-0.9s3,0.5,4.2,1.3v3.3h-3.5V56
			v-0.3c0-0.4,0-0.7-0.3-1c-0.1-0.2-0.4-0.2-0.6-0.2c-0.3,0-0.5,0.1-0.6,0.2c-0.3,0.3-0.3,0.8-0.3,1.2v0.2V61v0.2
			c0,0.4,0,0.9,0.3,1.2c0.1,0.2,0.4,0.2,0.6,0.2c0.3,0,0.5-0.1,0.6-0.2c0.2-0.2,0.3-0.6,0.3-1c0-0.1,0-0.3,0-0.3v-1.3h3.5v4
			c-0.9,0.7-2.5,1.2-4.1,1.3C94.4,65,93,64.6,92.3,63.9"/>
	</g>
	<g>
		<defs>
			<rect id="SVGID_9_" width="255.5" height="86.2"/>
		</defs>
		<clipPath id="SVGID_10_">
			<use xlink:href="#SVGID_9_"  style="overflow:visible;"/>
		</clipPath>
		<path class="st4" d="M102.9,64.3c-1.1-0.7-1.1-1.8-1.1-3v-2.4c0-0.9,0-2,0.8-2.7c0.8-0.6,1.9-0.7,2.9-0.7c1.5,0,2.5,0.2,3.1,0.5
			c1,0.6,1.1,1.7,1.1,2.8v2.4c0,0.9,0,2.1-0.8,2.8c-0.8,0.7-2,0.8-3,0.8C104.5,64.9,103.5,64.7,102.9,64.3 M105.2,57.5
			c-0.3,0.3-0.3,0.8-0.3,1.2v0.1v2.8c0,0.4,0,0.9,0.3,1.1c0.1,0.1,0.3,0.2,0.5,0.2s0.4-0.1,0.6-0.2c0.3-0.3,0.3-0.8,0.3-1.1v-2.8
			v-0.2c0-0.4,0-0.9-0.3-1.2c-0.1-0.1-0.3-0.2-0.5-0.2C105.6,57.3,105.4,57.4,105.2,57.5"/>
	</g>
	<g>
		<defs>
			<rect id="SVGID_11_" width="255.5" height="86.2"/>
		</defs>
		<clipPath id="SVGID_12_">
			<use xlink:href="#SVGID_11_"  style="overflow:visible;"/>
		</clipPath>
		<path class="st5" d="M119.4,56.3c1.4-0.9,2.5-1,3.2-0.8s1.2,0.6,1.4,0.8c0.5,0.6,0.5,1.5,0.5,2.2v3.2c0,0.4,0,0.7,0.4,1.1v1.9
			h-3.4c-0.2-0.8-0.2-1.6-0.2-2.4v-2.6c0-0.2,0-0.4,0-0.5c0-0.5-0.1-1-0.4-1.2c-0.2-0.2-0.6-0.2-1.2-0.1h-0.1v3.8
			c0,0.4,0,0.7,0.4,1.1v1.9h-3.4c-0.2-0.8-0.2-1.6-0.2-2.4v-2.6c0-0.2,0-0.4,0-0.5c0-0.5-0.1-1-0.4-1.2c-0.2-0.2-0.6-0.2-1.2-0.1
			h-0.1v3.8c0,0.4,0,0.8,0.4,1.1v1.9h-4v-1.9c0.4-0.3,0.4-0.7,0.4-1.1c0,0,0-3,0-3.1c0-0.4,0-0.8-0.4-1.1v-1.9h3.5v0.7l0.2-0.1
			c2.4-1.4,3.8-0.4,4.3,0.1l0.1,0.1L119.4,56.3z"/>
	</g>
	<g>
		<defs>
			<rect id="SVGID_13_" width="255.5" height="86.2"/>
		</defs>
		<clipPath id="SVGID_14_">
			<use xlink:href="#SVGID_13_"  style="overflow:visible;"/>
		</clipPath>
		<path class="st6" d="M134.4,56.3c1.4-0.9,2.5-1,3.2-0.8s1.2,0.6,1.4,0.8c0.5,0.6,0.5,1.5,0.5,2.2c0,0,0,3.1,0,3.2
			c0,0.4,0,0.7,0.4,1.1v1.9h-3.4c-0.1-0.8-0.2-1.6-0.2-2.4v-2.6c0-0.2,0-0.4,0-0.5c0-0.5-0.1-1-0.4-1.2c-0.2-0.2-0.6-0.2-1.2-0.1
			h-0.1v3.8c0,0.4,0,0.7,0.4,1.1v1.9h-3.4c-0.2-0.8-0.2-1.6-0.2-2.4v-2.6c0-0.2,0-0.4,0-0.5c0-0.5-0.1-1-0.4-1.2
			c-0.3-0.2-0.6-0.2-1.2-0.1h-0.1v3.8c0,0.4,0,0.8,0.4,1.1v1.9h-4v-1.9c0.4-0.3,0.4-0.7,0.4-1.1c0,0,0-3,0-3.1c0-0.4,0-0.8-0.4-1.1
			v-1.9h3.5v0.7l0.2-0.1c2.4-1.4,3.8-0.4,4.3,0.1l0.1,0.1L134.4,56.3z"/>
	</g>
	<g>
		<defs>
			<rect id="SVGID_15_" width="255.5" height="86.2"/>
		</defs>
		<clipPath id="SVGID_16_">
			<use xlink:href="#SVGID_15_"  style="overflow:visible;"/>
		</clipPath>
		<path class="st7" d="M141.9,64.2c-0.9-0.7-1-1.6-1-2.8v-2.5c0-1.3,0.2-2,0.7-2.6c0.6-0.6,1.6-0.9,3.2-0.9c1.7,0,2.8,0.3,3.4,0.9
			c0.5,0.5,0.7,1.1,0.7,2.1c0,0.1,0,0.1,0,0.2v2h-4.8v1v0.1c0,0.3,0,0.7,0.3,0.9c0.1,0.1,0.3,0.2,0.5,0.2c0.8,0,0.8-0.8,0.8-1.2v0
			h3.2v2.1c-0.7,0.6-2,1-3.5,1.1C144,65,142.6,64.7,141.9,64.2 M144.2,58.4v0.5h1.7v-0.5c0-0.9-0.5-1.1-0.8-1.1
			C144.6,57.3,144.2,57.5,144.2,58.4"/>
	</g>
	<g>
		<defs>
			<rect id="SVGID_17_" width="255.5" height="86.2"/>
		</defs>
		<clipPath id="SVGID_18_">
			<use xlink:href="#SVGID_17_"  style="overflow:visible;"/>
		</clipPath>
		<path class="st8" d="M154.1,56.3c0.4-0.6,0.7-0.9,1.4-0.9c0,0,0.1,0,0.3,0v2.9h-0.2c-1.4,0-1.6,0.9-1.6,1.9v0.9l0.1,1
			c0.1,0.3,0.2,0.5,0.4,0.6v1.8h-4.1v-1.9c0.4-0.3,0.4-0.7,0.4-1.1v-0.2v-2.7c0-0.4,0-0.8-0.4-1.1v-1.9h3.4v1.2L154.1,56.3z"/>
	</g>
	<g>
		<defs>
			<rect id="SVGID_19_" width="255.5" height="86.2"/>
		</defs>
		<clipPath id="SVGID_20_">
			<use xlink:href="#SVGID_19_"  style="overflow:visible;"/>
		</clipPath>
		<path class="st9" d="M156.8,61.6v-3.1c0-1.9,0.6-3,3.7-3c1.7,0,3,0.4,4,1.1v2.3h-2.9v-0.3c0-0.3,0-0.8-0.3-1
			c-0.1-0.1-0.3-0.2-0.5-0.2s-0.4,0.1-0.5,0.2c-0.3,0.3-0.3,0.7-0.3,1.1v3c0,0.4,0,0.9,0.3,1.2c0.1,0.1,0.3,0.2,0.5,0.2
			s0.4-0.1,0.5-0.2c0.3-0.3,0.3-0.7,0.3-1.1c0-0.1,0-0.2,0-0.2v-0.2v-0.3h2.9v2.6c-1.1,1.1-3.1,1.2-3.9,1.2
			C156.8,64.9,156.8,62.7,156.8,61.6"/>
	</g>
	<g>
		<defs>
			<rect id="SVGID_21_" width="255.5" height="86.2"/>
		</defs>
		<clipPath id="SVGID_22_">
			<use xlink:href="#SVGID_21_"  style="overflow:visible;"/>
		</clipPath>
		<path class="st10" d="M169.6,55.7v6.1c0,0.4,0,0.8,0.4,1.1v1.9h-4v-1.9c0.4-0.3,0.4-0.7,0.4-1.1v-3.2c0-0.4,0-0.8-0.4-1.1v-1.9
			L169.6,55.7L169.6,55.7z"/>
	</g>
	<g>
		<defs>
			<rect id="SVGID_23_" width="255.5" height="86.2"/>
		</defs>
		<clipPath id="SVGID_24_">
			<use xlink:href="#SVGID_23_"  style="overflow:visible;"/>
		</clipPath>
		<path class="st11" d="M166.1,53.5c0-0.9,0.9-1.3,1.7-1.3c0.7,0,1.7,0.3,1.7,1.3c0,0.9-1,1.3-1.7,1.3
			C167,54.8,166.1,54.4,166.1,53.5"/>
	</g>
	<g>
		<defs>
			<rect id="SVGID_25_" width="255.5" height="86.2"/>
		</defs>
		<clipPath id="SVGID_26_">
			<use xlink:href="#SVGID_25_"  style="overflow:visible;"/>
		</clipPath>
		<path class="st12" d="M175.7,55.5c0.7,0,2,0.1,2.8,0.7s0.9,1.4,0.9,2.4c0,0.1,0,0.2,0,0.3v2.8c0,0.4,0,0.8,0.4,1.1v1.9h-3.5v-0.9
			L176,64c-0.7,0.6-1.4,0.9-2.3,0.9c-1.5,0-2.5-1-2.5-2.5c0-1.8,1.1-2.3,2.6-2.8l2.4-0.8v-0.4c0-0.9-0.5-1.1-0.8-1.1
			c-0.4,0-0.8,0.2-0.8,1.1v0.2h-2.9v-2C172.7,55.9,174,55.5,175.7,55.5 M176,60.7l-0.3,0.1c-0.6,0.2-1.2,0.4-1.2,1.1
			c0,0.2,0.1,0.5,0.3,0.6c0.1,0.1,0.3,0.1,0.4,0.1c0.3,0,0.7-0.1,1-0.4h0.1v-1.6L176,60.7z"/>
	</g>
	<g>
		<defs>
			<rect id="SVGID_27_" width="255.5" height="86.2"/>
		</defs>
		<clipPath id="SVGID_28_">
			<use xlink:href="#SVGID_27_"  style="overflow:visible;"/>
		</clipPath>
		<path class="st13" d="M184.7,52.3v9.4c0,0.4,0,0.8,0.4,1.1v1.9h-4v-1.9c0.4-0.3,0.4-0.7,0.4-1.1v-6.5c0-0.4,0-0.8-0.4-1.1v-1.9
			h3.6V52.3z"/>
	</g>
	<g>
		<defs>
			<rect id="SVGID_29_" width="255.5" height="86.2"/>
		</defs>
		<clipPath id="SVGID_30_">
			<use xlink:href="#SVGID_29_"  style="overflow:visible;"/>
		</clipPath>
		<path class="st14" d="M203.1,52.3v2c-0.4,0.3-0.4,0.7-0.4,1.1v0.2v6c0,0.4,0,0.8,0.4,1.1v2h-4.3v-2c0.4-0.3,0.4-0.7,0.4-1.1v-0.2
			V58v-1.4l-0.3,1.3c0,0-1.6,6.5-1.7,6.8h-1c-0.1-0.2-1.8-6.8-1.8-6.8l-0.3-1.1v1.1v3.6c0,0.4,0,0.8,0.4,1.1v2h-3.6v-2
			c0.4-0.3,0.4-0.7,0.4-1.1v-0.2v-5.9c0-0.4,0-0.8-0.4-1.1v-2h4.7c0.1,0.2,1.4,5.7,1.4,5.7l0.2-0.6c0,0,1.2-4.8,1.3-5.1
			C198.5,52.3,203.1,52.3,203.1,52.3z"/>
	</g>
	<g>
		<defs>
			<rect id="SVGID_31_" width="255.5" height="86.2"/>
		</defs>
		<clipPath id="SVGID_32_">
			<use xlink:href="#SVGID_31_"  style="overflow:visible;"/>
		</clipPath>
		<path class="st15" d="M205.2,64.2c-0.9-0.7-1-1.6-1-2.8v-2.5c0-1.3,0.2-2,0.7-2.6c0.6-0.6,1.6-0.9,3.2-0.9c1.7,0,2.8,0.3,3.4,0.9
			c0.4,0.5,0.7,1.1,0.7,2.1c0,0.1,0,0.1,0,0.2v2h-4.8v1v0.1c0,0.3,0,0.7,0.3,0.9c0.1,0.1,0.3,0.2,0.6,0.2c0.8,0,0.8-0.8,0.8-1.2v0
			h3.2v2.1c-0.7,0.6-2,1-3.5,1.1C207.2,65,205.9,64.7,205.2,64.2 M207.4,58.4v0.5h1.7v-0.5c0-0.9-0.5-1.1-0.8-1.1
			C207.9,57.3,207.4,57.5,207.4,58.4"/>
	</g>
	<g>
		<defs>
			<rect id="SVGID_33_" width="255.5" height="86.2"/>
		</defs>
		<clipPath id="SVGID_34_">
			<use xlink:href="#SVGID_33_"  style="overflow:visible;"/>
		</clipPath>
		<path class="st16" d="M217.1,52.9v2.8h1.2v1.8h-1.2v3.8c0,1,0,1.4,1.2,1.6v1.8c-0.3,0-1.6,0.1-1.6,0.1c-0.4,0-1.5,0-2.2-0.6
			c-0.5-0.5-0.5-1.3-0.5-2.1v-4.7h-0.4v-1.8h0.4v-1.9C214.1,53.8,216.7,53,217.1,52.9"/>
	</g>
	<g>
		<defs>
			<rect id="SVGID_35_" width="255.5" height="86.2"/>
		</defs>
		<clipPath id="SVGID_36_">
			<use xlink:href="#SVGID_35_"  style="overflow:visible;"/>
		</clipPath>
		<path class="st17" d="M223.9,55.5c0.7,0,2,0.1,2.8,0.7s0.9,1.4,0.9,2.4c0,0.1,0,0.2,0,0.3v2.8c0,0.4,0,0.8,0.4,1.1v1.9h-3.4v-0.9
			l-0.3,0.2c-0.7,0.6-1.4,0.9-2.3,0.9c-1.5,0-2.5-1-2.5-2.5c0-1.8,1.1-2.3,2.6-2.8l2.4-0.8v-0.4c0-0.9-0.5-1.1-0.8-1.1
			c-0.4,0-0.8,0.2-0.8,1.1v0.2h-3v-2C220.9,55.9,222.2,55.5,223.9,55.5 M224.2,60.7l-0.3,0.1c-0.6,0.2-1.2,0.4-1.2,1.1
			c0,0.2,0.1,0.5,0.3,0.6c0.1,0.1,0.3,0.1,0.4,0.1c0.3,0,0.7-0.1,1-0.4h0.1v-1.6L224.2,60.7z"/>
	</g>
	<g>
		<defs>
			<rect id="SVGID_37_" width="255.5" height="86.2"/>
		</defs>
		<clipPath id="SVGID_38_">
			<use xlink:href="#SVGID_37_"  style="overflow:visible;"/>
		</clipPath>
		<path class="st18" d="M232.9,52.3v9.4c0,0.4,0,0.8,0.4,1.1v1.9h-4v-1.9c0.4-0.3,0.4-0.7,0.4-1.1v-6.5c0-0.4,0-0.8-0.4-1.1v-1.9
			h3.6V52.3z"/>
	</g>
	<g>
		<defs>
			<rect id="SVGID_39_" width="255.5" height="86.2"/>
		</defs>
		<clipPath id="SVGID_40_">
			<use xlink:href="#SVGID_39_"  style="overflow:visible;"/>
		</clipPath>
		<path class="st19" d="M239.4,62.1c0-0.9-1-1.1-1.6-1.2l-0.3-0.1c-1.6-0.4-2.9-0.7-2.9-2.5c0-1.1,0.3-1.7,1-2.2
			c0.8-0.5,2-0.6,2.6-0.6c1.7,0,3,0.4,4,1.1v2h-2.9v-0.2c0-0.7-0.3-1.1-0.9-1.1c-0.5,0-0.8,0.4-0.8,0.8c0,0.7,0.9,0.9,1.4,1l0.2,0.1
			c1.8,0.4,3.2,0.7,3.2,2.8c0,1.9-1.2,2.9-3.8,2.9c-1.3,0-3-0.3-3.9-1.2v-2.2h3v0.3c0,0.3,0,0.7,0.3,1c0.1,0.1,0.3,0.2,0.6,0.2
			C239,63,239.4,62.6,239.4,62.1"/>
	</g>
	<g>
		<defs>
			<rect id="SVGID_41_" width="255.5" height="86.2"/>
		</defs>
		<clipPath id="SVGID_42_">
			<use xlink:href="#SVGID_41_"  style="overflow:visible;"/>
		</clipPath>
		<path class="st20" d="M85.8,48.7c-0.2-0.1-4.2-1.9-9.7-2.6c-3-0.4-8.5-0.8-17.7-0.8h-4.9c-1.5,0-2.8,0-4.1,0
			c3.9-4.8,6.2-10.8,6.2-17.4C55.6,12.5,43.1,0,27.8,0C12.4,0,0,12.5,0,27.8c0,0.8,0,1.7,0.1,2.5v1c0,0.3,0,0.7,0,1.1
			c0,0.7,0,1.4,0.1,2.1c0.4,9.4,3.4,17.2,8.7,23.1c7.1,7.9,15.4,11.5,26.9,11.5h18.9c5.8,0,11.8,0.1,16.5,1.1c5.3,1.1,9.4,3,9.8,3.2
			l1,0.4l4.4-24.9L85.8,48.7z"/>
	</g>
	<g>
		<defs>
			<rect id="SVGID_43_" width="255.5" height="86.2"/>
		</defs>
		<clipPath id="SVGID_44_">
			<use xlink:href="#SVGID_43_"  style="overflow:visible;"/>
		</clipPath>
		<path class="st21" d="M13.5,8.8c-1-0.2-1.9-0.5-2.8-0.7c-2,1.8-3.8,3.8-5.2,6.1c1.1,0.4,2.4,0.8,3.8,1.2
			C10.4,12.8,11.9,10.6,13.5,8.8"/>
	</g>
	<g>
		<defs>
			<rect id="SVGID_45_" width="255.5" height="86.2"/>
		</defs>
		<clipPath id="SVGID_46_">
			<use xlink:href="#SVGID_45_"  style="overflow:visible;"/>
		</clipPath>
		<path class="st22" d="M38.6,28.1c0-0.5-0.1-1.1-0.1-1.7c-0.3-2.9-0.8-5.4-1.4-7.8c-2.7,0.3-5.6,0.4-8.5,0.5v9.4
			C32.2,28.5,35.5,28.3,38.6,28.1"/>
	</g>
	<g>
		<defs>
			<rect id="SVGID_47_" width="255.5" height="86.2"/>
		</defs>
		<clipPath id="SVGID_48_">
			<use xlink:href="#SVGID_47_"  style="overflow:visible;"/>
		</clipPath>
		<path class="st23" d="M16.8,29.7c-0.2,3.7-0.1,6.8,0.3,9.5c3,0.3,6.3,0.4,9.9,0.4v-9.5C23.4,30.1,20,30,16.8,29.7"/>
	</g>
	<g>
		<defs>
			<rect id="SVGID_49_" width="255.5" height="86.2"/>
		</defs>
		<clipPath id="SVGID_50_">
			<use xlink:href="#SVGID_49_"  style="overflow:visible;"/>
		</clipPath>
		<path class="st24" d="M6.7,24.1c0.4-2.7,1-5,1.8-7.1c-1.4-0.4-2.8-0.8-4-1.3C3,18.5,2,21.7,1.6,25c1.3,0.6,2.9,1,4.7,1.5
			C6.5,25.7,6.6,24.9,6.7,24.1"/>
	</g>
	<g>
		<defs>
			<rect id="SVGID_51_" width="255.5" height="86.2"/>
		</defs>
		<clipPath id="SVGID_52_">
			<use xlink:href="#SVGID_51_"  style="overflow:visible;"/>
		</clipPath>
		<path class="st25" d="M15.2,29.6c-2.6-0.3-5.1-0.6-7.2-1.1C7.8,32,8,35.1,8.7,38c2,0.5,4.2,0.8,6.8,1.1C15.1,36.2,15,33,15.2,29.6
			"/>
	</g>
	<g>
		<defs>
			<rect id="SVGID_53_" width="255.5" height="86.2"/>
		</defs>
		<clipPath id="SVGID_54_">
			<use xlink:href="#SVGID_53_"  style="overflow:visible;"/>
		</clipPath>
		<path class="st26" d="M17.8,4.8c1.3-1,2.6-1.8,3.8-2.4c-3.4,0.8-6.6,2.4-9.4,4.4C13,7,13.9,7.2,14.7,7.4
			C15.8,6.4,16.8,5.5,17.8,4.8"/>
	</g>
	<g>
		<defs>
			<rect id="SVGID_55_" width="255.5" height="86.2"/>
		</defs>
		<clipPath id="SVGID_56_">
			<use xlink:href="#SVGID_55_"  style="overflow:visible;"/>
		</clipPath>
		<path class="st27" d="M27,10.3c-1.8,0-3.5-0.1-5.2-0.2c-1,2-2,4.3-2.8,6.9c2.6,0.3,5.3,0.4,8,0.4V10.3z"/>
	</g>
	<g>
		<defs>
			<rect id="SVGID_57_" width="255.5" height="86.2"/>
		</defs>
		<clipPath id="SVGID_58_">
			<use xlink:href="#SVGID_57_"  style="overflow:visible;"/>
		</clipPath>
		<path class="st28" d="M40.1,26.2c0.1,0.6,0.1,1.1,0.1,1.7c2.6-0.3,5-0.6,7.2-1.1c-0.1-0.8-0.2-1.7-0.3-2.5c-0.4-2.6-1-4.9-1.8-7
			c-2,0.5-4.2,0.8-6.6,1.1C39.4,20.8,39.8,23.4,40.1,26.2"/>
	</g>
	<g>
		<defs>
			<rect id="SVGID_59_" width="255.5" height="86.2"/>
		</defs>
		<clipPath id="SVGID_60_">
			<use xlink:href="#SVGID_59_"  style="overflow:visible;"/>
		</clipPath>
		<path class="st29" d="M6.2,36.1c0.2,0.2,0.3,0.3,0.5,0.5c-0.4-2.6-0.6-5.4-0.4-8.4c-1.8-0.4-3.3-0.9-4.7-1.4c0,0.4,0,0.7,0,1.1
			c0,1.2,0.1,2.3,0.2,3.5C2.7,32.3,4.7,34.8,6.2,36.1"/>
	</g>
	<g>
		<defs>
			<rect id="SVGID_61_" width="255.5" height="86.2"/>
		</defs>
		<clipPath id="SVGID_62_">
			<use xlink:href="#SVGID_61_"  style="overflow:visible;"/>
		</clipPath>
		<path class="st30" d="M18.5,18.6c-0.6,2.3-1.1,4.9-1.4,7.8C17,27,17,27.5,17,28.1c3.1,0.3,6.5,0.4,10,0.4v-9.4
			C24,19.1,21.2,18.9,18.5,18.6"/>
	</g>
	<g>
		<defs>
			<rect id="SVGID_63_" width="255.5" height="86.2"/>
		</defs>
		<clipPath id="SVGID_64_">
			<use xlink:href="#SVGID_63_"  style="overflow:visible;"/>
		</clipPath>
		<path class="st31" d="M38.8,7.8C35.9,5.2,33,3.7,31,2.9c1.2,1.4,2.6,3.2,3.8,5.5C36.1,8.2,37.5,8,38.8,7.8"/>
	</g>
	<g>
		<defs>
			<rect id="SVGID_65_" width="255.5" height="86.2"/>
		</defs>
		<clipPath id="SVGID_66_">
			<use xlink:href="#SVGID_65_"  style="overflow:visible;"/>
		</clipPath>
		<path class="st32" d="M32.9,8.5c-1.5-2.5-3-4.3-4.3-5.7v5.9C30.1,8.6,31.5,8.6,32.9,8.5"/>
	</g>
	<g>
		<defs>
			<rect id="SVGID_67_" width="255.5" height="86.2"/>
		</defs>
		<clipPath id="SVGID_68_">
			<use xlink:href="#SVGID_67_"  style="overflow:visible;"/>
		</clipPath>
		<path class="st33" d="M36.7,17c-0.8-2.7-1.8-5-2.8-6.9c-1.7,0.1-3.4,0.2-5.2,0.2v7.1C31.4,17.4,34.1,17.3,36.7,17"/>
	</g>
	<g>
		<defs>
			<rect id="SVGID_69_" width="255.5" height="86.2"/>
		</defs>
		<clipPath id="SVGID_70_">
			<use xlink:href="#SVGID_69_"  style="overflow:visible;"/>
		</clipPath>
		<path class="st34" d="M40.1,39c2.5-0.3,4.8-0.6,6.8-1.1c0.7-2.8,0.9-6,0.7-9.5c-2.2,0.4-4.6,0.8-7.2,1.1
			C40.6,33,40.5,36.2,40.1,39"/>
	</g>
	<g>
		<defs>
			<rect id="SVGID_71_" width="255.5" height="86.2"/>
		</defs>
		<clipPath id="SVGID_72_">
			<use xlink:href="#SVGID_71_"  style="overflow:visible;"/>
		</clipPath>
		<path class="st35" d="M27,2.8c-1.3,1.4-2.9,3.2-4.3,5.7c1.4,0.1,2.9,0.2,4.3,0.2V2.8z"/>
	</g>
	<g>
		<defs>
			<rect id="SVGID_73_" width="255.5" height="86.2"/>
		</defs>
		<clipPath id="SVGID_74_">
			<use xlink:href="#SVGID_73_"  style="overflow:visible;"/>
		</clipPath>
		<path class="st36" d="M24.7,2.8c-1.6,0.6-3.7,1.7-6,3.4c-0.7,0.5-1.3,1-2,1.6c1.3,0.2,2.7,0.4,4,0.5C22.1,6.1,23.4,4.3,24.7,2.8"
			/>
	</g>
	<g>
		<defs>
			<rect id="SVGID_75_" width="255.5" height="86.2"/>
		</defs>
		<clipPath id="SVGID_76_">
			<use xlink:href="#SVGID_75_"  style="overflow:visible;"/>
		</clipPath>
		<path class="st37" d="M46.3,15.4c1.4-0.4,2.6-0.7,3.8-1.2c-1.4-2.3-3.2-4.4-5.2-6.1c-0.9,0.3-1.8,0.5-2.8,0.7
			C43.6,10.6,45.1,12.8,46.3,15.4"/>
	</g>
	<g>
		<defs>
			<rect id="SVGID_77_" width="255.5" height="86.2"/>
		</defs>
		<clipPath id="SVGID_78_">
			<use xlink:href="#SVGID_77_"  style="overflow:visible;"/>
		</clipPath>
		<path class="st38" d="M38.7,29.7c-3.1,0.3-6.5,0.4-10.1,0.4v9.5c3.6,0,6.9-0.2,9.9-0.4C38.8,36.6,38.9,33.4,38.7,29.7"/>
	</g>
	<g>
		<defs>
			<rect id="SVGID_79_" width="255.5" height="86.2"/>
		</defs>
		<clipPath id="SVGID_80_">
			<use xlink:href="#SVGID_79_"  style="overflow:visible;"/>
		</clipPath>
		<path class="st39" d="M48.7,37.5c1.5-0.4,2.9-0.9,3.9-1.5c0.8-2.6,1.3-5.3,1.3-8.1c0-0.4,0-0.7,0-1.1c-1.3,0.5-2.9,1-4.7,1.4
			C49.4,31.5,49.3,34.7,48.7,37.5"/>
	</g>
	<g>
		<defs>
			<rect id="SVGID_81_" width="255.5" height="86.2"/>
		</defs>
		<clipPath id="SVGID_82_">
			<use xlink:href="#SVGID_81_"  style="overflow:visible;"/>
		</clipPath>
		<path class="st40" d="M48.8,24.1c0.1,0.8,0.2,1.6,0.3,2.4c1.8-0.4,3.4-0.9,4.7-1.5c-0.4-3.3-1.4-6.5-2.9-9.3
			c-1.2,0.5-2.5,0.9-4,1.3C47.8,19,48.4,21.4,48.8,24.1"/>
	</g>
	<g>
		<defs>
			<rect id="SVGID_83_" width="255.5" height="86.2"/>
		</defs>
		<clipPath id="SVGID_84_">
			<use xlink:href="#SVGID_83_"  style="overflow:visible;"/>
		</clipPath>
		<path class="st41" d="M40.8,7.4c0.9-0.2,1.7-0.4,2.5-0.6c-2.8-2-5.9-3.6-9.4-4.4c1.2,0.6,2.5,1.4,3.8,2.4
			C38.7,5.5,39.8,6.4,40.8,7.4"/>
	</g>
	<g>
		<defs>
			<rect id="SVGID_85_" width="255.5" height="86.2"/>
		</defs>
		<clipPath id="SVGID_86_">
			<use xlink:href="#SVGID_85_"  style="overflow:visible;"/>
		</clipPath>
		<path class="st42" d="M15.5,26.2c0.3-2.9,0.8-5.4,1.4-7.8c-2.4-0.3-4.6-0.7-6.6-1.1c-0.9,2.2-1.5,4.5-1.8,7
			c-0.1,0.9-0.2,1.7-0.3,2.5c2.2,0.4,4.6,0.8,7.2,1.1C15.3,27.4,15.4,26.8,15.5,26.2"/>
	</g>
	<g>
		<defs>
			<rect id="SVGID_87_" width="255.5" height="86.2"/>
		</defs>
		<clipPath id="SVGID_88_">
			<use xlink:href="#SVGID_87_"  style="overflow:visible;"/>
		</clipPath>
		<path class="st43" d="M20,9.9c-1.6-0.2-3.2-0.4-4.6-0.7c-1.8,1.9-3.3,4.1-4.5,6.6c2,0.4,4.1,0.8,6.4,1.1C18,14.2,19,11.9,20,9.9"
			/>
	</g>
	<g>
		<defs>
			<rect id="SVGID_89_" width="255.5" height="86.2"/>
		</defs>
		<clipPath id="SVGID_90_">
			<use xlink:href="#SVGID_89_"  style="overflow:visible;"/>
		</clipPath>
		<path class="st44" d="M44.7,15.8c-1.3-2.6-2.8-4.8-4.5-6.6c-1.5,0.3-3,0.5-4.6,0.7c1,2,1.9,4.3,2.7,6.9
			C40.6,16.6,42.7,16.2,44.7,15.8"/>
	</g>
	<g>
		<defs>
			<rect id="SVGID_91_" width="255.5" height="86.2"/>
		</defs>
		<clipPath id="SVGID_92_">
			<use xlink:href="#SVGID_91_"  style="overflow:visible;"/>
		</clipPath>
		<path class="st45" d="M1.7,33.7c0,0.2,0,0.5,0,0.7c0.5,9,3.4,16.4,8.4,22.1c6.7,7.6,14.7,10.9,25.7,10.9h18.9
			c5.9,0,12,0.1,16.8,1.1c4.2,0.9,7.6,2.2,9.2,2.9l3.8-21.5c-1.3-0.5-4.6-1.7-8.6-2.2c-2.9-0.4-8.4-0.8-17.5-0.8h-4.9
			c-5.3,0-9.4,0-12.8,0.1c-2.2,0-4.1,0-5.7,0c-3.1,0-5.4-0.1-7.5-0.3c-4.8-0.6-7.5-0.9-11.8-2.6c-4.8-1.9-7.7-4-10.7-6.7
			C4,36.4,2.7,34.9,1.7,33.7"/>
	</g>
	<g>
		<defs>
			<rect id="SVGID_93_" width="255.5" height="86.2"/>
		</defs>
		<clipPath id="SVGID_94_">
			<use xlink:href="#SVGID_93_"  style="overflow:visible;"/>
		</clipPath>
		<path class="st46" d="M4.1,39c1.1,6.5,3.6,11.9,7.4,16.3c6.4,7.1,13.9,10.3,24.3,10.3h18.9c6,0,12.2,0.1,17.2,1.2
			c2.9,0.6,5.5,1.4,7.4,2.1l3.1-17.7c-1.6-0.5-4-1.2-6.7-1.6c-2.9-0.4-8.2-0.8-17.2-0.8h-4.9c-5.3,0-9.4,0-12.8,0.1l0,0
			c-2.2,0-4.1,0-5.7,0c-3.1,0-5.5-0.1-7.7-0.3c-4.8-0.6-7.8-1-12.3-2.8C10.2,43.9,7.2,41.8,4.1,39"/>
	</g>
	<g>
		<defs>
			<rect id="SVGID_95_" width="255.5" height="86.2"/>
		</defs>
		<clipPath id="SVGID_96_">
			<use xlink:href="#SVGID_95_"  style="overflow:visible;"/>
		</clipPath>
		<path class="st47" d="M34.9,62.7c-1-0.9-1-2.2-1-3.5v-4.6c0-1.1,0.1-2.2,1-2.9c0.8-0.7,2.1-1,3.7-0.9c1.5,0.1,3.1,0.5,4.2,1.3v3.3
			h-3.5v-0.6c0,0,0-0.3,0-0.4c0-0.4,0-0.7-0.3-1c-0.1-0.2-0.4-0.2-0.6-0.2c-0.3,0-0.5,0.1-0.6,0.2c-0.3,0.3-0.3,0.8-0.3,1.2v0.2v4.9
			v0.2c0,0.4,0,0.9,0.3,1.2c0.1,0.2,0.4,0.2,0.6,0.2c0.3,0,0.5-0.1,0.6-0.2c0.2-0.3,0.3-0.6,0.3-1c0-0.1,0-0.3,0-0.3v-1.3h3.5v4
			c-0.9,0.8-2.5,1.2-4.1,1.3C37,63.7,35.6,63.3,34.9,62.7"/>
	</g>
	<g>
		<defs>
			<rect id="SVGID_97_" width="255.5" height="86.2"/>
		</defs>
		<clipPath id="SVGID_98_">
			<use xlink:href="#SVGID_97_"  style="overflow:visible;"/>
		</clipPath>
		<path class="st48" d="M57.6,51v2c-0.4,0.3-0.4,0.7-0.4,1.1v0.2c0,0,0,5.9,0,6c0,0.4,0,0.8,0.4,1.1v2h-4.3v-2
			c0.4-0.3,0.4-0.7,0.4-1.1v-0.2v-3.5v-1.4l-0.4,1.4c0,0-1.6,6.6-1.7,6.8h-1c0-0.2-1.7-6.8-1.7-6.8l-0.3-1.1v1.1v3.6
			c0,0.4,0,0.8,0.4,1.1v2h-3.6v-2c0.4-0.3,0.4-0.7,0.4-1.1V60v-6c0-0.4,0-0.8-0.4-1.1v-2h4.7c0.1,0.2,1.4,5.7,1.4,5.7l0.2-0.6
			c0,0,1.2-4.9,1.3-5.1L57.6,51L57.6,51z"/>
	</g>
	<g>
		<defs>
			<rect id="SVGID_99_" width="255.5" height="86.2"/>
		</defs>
		<clipPath id="SVGID_100_">
			<use xlink:href="#SVGID_99_"  style="overflow:visible;"/>
		</clipPath>
		<path class="st49" d="M61,62.7c-1-0.9-1-2.2-1-3.5v-4.6c0-1.1,0.1-2.2,1-2.9c0.8-0.7,2.1-1,3.7-0.9c1.5,0.1,3,0.5,4.2,1.3v3.3
			h-3.5v-0.6c0,0,0-0.3,0-0.4c0-0.4,0-0.7-0.3-1c-0.1-0.2-0.4-0.2-0.6-0.2c-0.3,0-0.5,0.1-0.6,0.2c-0.3,0.3-0.3,0.8-0.3,1.2v0.2v4.9
			v0.2c0,0.4,0,0.9,0.3,1.2c0.1,0.2,0.4,0.2,0.6,0.2c0.3,0,0.5-0.1,0.6-0.2c0.2-0.3,0.3-0.6,0.3-1c0-0.1,0-0.3,0-0.3v-1.3h3.5v4
			c-0.9,0.8-2.5,1.2-4.1,1.3C63.1,63.7,61.7,63.3,61,62.7"/>
	</g>
	<g>
		<defs>
			<rect id="SVGID_101_" width="255.5" height="86.2"/>
		</defs>
		<clipPath id="SVGID_102_">
			<use xlink:href="#SVGID_101_"  style="overflow:visible;"/>
		</clipPath>
		<path class="st50" d="M43.8,45.3c1.1-1.7,2-3.5,2.6-5.6c-1.9,0.4-4.1,0.7-6.5,1c-0.3,1.7-0.6,3.2-1.1,4.6c0.6,0,1.2,0,1.9,0
			C41.7,45.3,42.7,45.3,43.8,45.3"/>
	</g>
	<g>
		<defs>
			<rect id="SVGID_103_" width="255.5" height="86.2"/>
		</defs>
		<clipPath id="SVGID_104_">
			<use xlink:href="#SVGID_103_"  style="overflow:visible;"/>
		</clipPath>
		<path class="st51" d="M27,41.3c-3.5,0-6.7-0.2-9.6-0.4c0.1,0.8,0.3,1.5,0.5,2.2c3.1,1.1,5.5,1.5,9.2,1.9L27,41.3L27,41.3z"/>
	</g>
	<g>
		<defs>
			<rect id="SVGID_105_" width="255.5" height="86.2"/>
		</defs>
		<clipPath id="SVGID_106_">
			<use xlink:href="#SVGID_105_"  style="overflow:visible;"/>
		</clipPath>
		<path class="st52" d="M37.1,45.4c0.4-1.3,0.8-2.8,1.1-4.5c-2.9,0.2-6.1,0.4-9.6,0.4v3.9c1.8,0.2,3.8,0.2,6.4,0.2
			C35.7,45.4,36.4,45.4,37.1,45.4"/>
	</g>
	<g>
		<defs>
			<rect id="SVGID_107_" width="255.5" height="86.2"/>
		</defs>
		<clipPath id="SVGID_108_">
			<use xlink:href="#SVGID_107_"  style="overflow:visible;"/>
		</clipPath>
		<path class="st53" d="M15.7,40.7c-1.4-0.1-2.8-0.3-4.1-0.5c1.3,0.8,2.7,1.5,4.4,2.2C15.8,41.8,15.7,41.3,15.7,40.7"/>
	</g>
	<g>
		<defs>
			<rect id="SVGID_109_" width="255.5" height="86.2"/>
		</defs>
		<clipPath id="SVGID_110_">
			<use xlink:href="#SVGID_109_"  style="overflow:visible;"/>
		</clipPath>
		<path class="st54" d="M51.8,38.2c-1,0.4-2.2,0.8-3.5,1.1c-0.6,2.2-1.4,4.2-2.5,6c0.5,0,1,0,1.5,0C49.1,43.2,50.7,40.8,51.8,38.2"
			/>
	</g>
</g>
</svg>
